<svg xmlns="http://www.w3.org/2000/svg" xmlns:xlink="http://www.w3.org/1999/xlink" version="1.1" id="Layer_1" x="0px" y="0px" viewBox="5.0 -10.0 100.0 135.0" enable-background="new 0 0 100 100" xml:space="preserve" height="100px" width="100px">
<path fill-rule="evenodd" clip-rule="evenodd" d="M94.979,57.554c-1.494,13.095-11.821,28.317-24.367,32.828  c-13.33,3.363-27.836,3.14-41.189,0.009C16.886,85.966,6.51,70.604,5.022,57.554c-0.214-1.872,1.184-3.576,3.17-3.598  c-0.042-1.653,0.291-3.434,0.859-4.989c-2.102-3.64-0.803-8.347,2.896-10.394c0.589-2.022,1.999-3.71,3.881-4.654  c1.599-3.683,5.434-5.917,9.418-5.447c1.782-2.004,4.422-2.967,7.086-2.585c1.566,0.237,5.55-3.567,10.756,1.069  c0.889-0.122,1.727-0.184,2.625-0.142c2.627-2.226,6.232-2.766,9.388-1.469c2.796-1.161,5.973-0.85,8.5,0.804l-0.921,4.894  c-2.683-2.784-4.471-2.627-7.578-0.834c-3.19-1.85-4.955-1.96-7.771,1.07c-2.474-0.287-3.412-0.171-5.749,0.394  c-2.626-3.107-4.72-3.812-8.305-1.124c-3.707-1.09-4.451-0.021-6.111,2.811c-4.523-1.325-6.589-0.558-7.91,3.863  c-2.885,0.946-3.114,1.477-3.446,4.425c-4.24,1.471-4.436,3.638-1.785,6.736l-0.599,1.253c-0.768,1.61-1.843,3.797,0.163,4.629  c20.801,3.165,53.05,3.242,73.772-0.152c-0.15-0.844,0.039-1.352,0.186-2.198c2.27-3.428-0.024-6.24-3.248-7.58  c-0.845-4.316-2.802-5.648-7.32-4.609l-0.773-0.896l1.752-4.304c0.198,0.173,0.392,0.349,0.58,0.532  c0.274-0.026,0.54-0.038,0.795-0.038c2.189,0,4.208,0.78,5.79,2.079c1.325,1.089,2.34,2.544,2.887,4.207  c7.862,4.465,3.276,10.196,3.672,12.651C93.639,53.894,95.203,55.603,94.979,57.554z"/>
<path fill-rule="evenodd" clip-rule="evenodd" d="M69.836,27.784c1.132,0.651,2.099,1.515,2.867,2.574l-2.1,5.162  c-0.547-0.154-0.8-2.041-1.657-3.009L69.836,27.784z"/>
<path fill-rule="evenodd" clip-rule="evenodd" d="M70.671,48.156c-0.792,1.96-3.777,0.755-2.983-1.208L81.82,12.224  c0.792-1.96,3.777-0.755,2.983,1.208L70.671,48.156z"/>
<path fill-rule="evenodd" clip-rule="evenodd" d="M64.742,46.135c-0.387,2.075-3.549,1.49-3.16-0.591l6.984-37.072  c0.387-2.075,3.549-1.49,3.16,0.591L64.742,46.135z"/>
<text x="0.0" y="117.5" font-size="5.0" font-weight="bold" font-family="Helvetica Neue, Helvetica, Arial-Unicode, Arial, Sans-serif" fill="#000000">Created by Mourad Mokrane</text><text x="0.0" y="122.5" font-size="5.0" font-weight="bold" font-family="Helvetica Neue, Helvetica, Arial-Unicode, Arial, Sans-serif" fill="#000000">from the Noun Project</text></svg>